<?xml version="1.0" standalone="no"?>
<!DOCTYPE svg PUBLIC "-//W3C//DTD SVG 20010904//EN"
 "http://www.w3.org/TR/2001/REC-SVG-20010904/DTD/svg10.dtd">
<svg version="1.0" xmlns="http://www.w3.org/2000/svg"
 width="512.000000pt" height="512.000000pt" viewBox="0 0 512.000000 512.000000"
 preserveAspectRatio="xMidYMid meet">

<g transform="translate(0.000000,512.000000) scale(0.100000,-0.100000)"
fill="#000000" stroke="none">
<path d="M480 5113 c-189 -34 -329 -157 -387 -340 -17 -55 -18 -136 -18 -1588
l0 -1530 22 -71 c27 -85 89 -181 146 -228 46 -37 1975 -1240 2073 -1293 126
-67 260 -79 388 -34 78 27 2132 1291 2192 1349 60 57 100 123 127 207 l22 70
0 1530 c0 1452 -1 1533 -18 1588 -49 152 -157 267 -304 321 l-58 21 -2080 1
c-1144 1 -2091 -1 -2105 -3z m3240 -1522 c117 -59 173 -154 171 -288 -1 -120
17 -99 -754 -870 -488 -487 -715 -708 -746 -723 -85 -42 -199 -42 -280 0 -44
23 -773 753 -794 795 -23 47 -35 129 -26 183 29 187 217 297 401 236 47 -15
78 -42 289 -250 213 -211 240 -234 270 -234 30 0 78 45 604 569 518 517 575
570 625 590 72 28 175 24 240 -8z"/>
</g>
</svg>
